{"title":"MassageRooms.Steve.Martin.And.Angel.XXX.1080p.MP4KTR.mp4","uid":10614785,"size":1347871869,"categoryP":"porn","categoryS":"movies","magnet":"?xt=urn:btih:39677cefa37abd6986b5570c2026f80dbf06b080&amp;dn=MassageRooms.Steve.Martin.And.Angel.XXX.1080p.MP4KTR.mp4&amp;tr=udp%3A%2F%2Ftracker.openbittorrent.com%3A80&amp;tr=udp%3A%2F%2Fopen.demonii.com%3A1337&amp;tr=udp%3A%2F%2Ftracker.coppersurfer.tk%3A6969&amp;tr=udp%3A%2F%2Fexodus.desync.com%3A6969","seeders":0,"leechers":1,"uploader":"XXXmegathor","files":1,"time":1406090728,"description":"MassageRooms.Steve.Martin.And.Angel.XXX.1080p.MP4KTR\n\nSCREENIES &lt;a href=&quot;\nhttp://xxxtrapics.com/image/MN&quot; rel=&quot;nofollow&quot; target=&quot;_NEW&quot;&gt;\nhttp://xxxtrapics.com/image/MN&lt;/a&gt;\n\n\nDuration : 22mn 6s\nBit rate mode : Variable\nBit rate : 8 000 Kbps\nWidth : 1 920 pixels\nHeight : 1 080 pixels\nDisplay aspect ratio : 16:9\nFrame rate mode : Constant\nFrame rate : 24.000 fps\nColor space : YUV\nChroma subsampling : 4:2:0\nBit depth : 8 bits\nScan type : Progressive\nBits/(Pixel*Frame) : 0.161\nStream size : 1.24 GiB (98%)\nWriting library : x264 core 136\nEncoding settings : cabac=1 / ref=1 / deblock=1:0:0 / analyse=0x3:0x113 / me=hex / subme=2 / psy=1 / psy_rd=1.00:0.00 / mixed_ref=0 / me_range=16 / chroma_me=1 / trellis=0 / 8x8dct=1 / cqm=0 / deadzone=21,11 / fast_pskip=1 / chroma_qp_offset=0 / threads=48 / lookahead_threads=8 / sliced_threads=0 / nr=0 / decimate=1 / interlaced=0 / bluray_compat=0 / constrained_intra=0 / bframes=3 / b_pyramid=2 / b_adapt=1 / b_bias=0 / direct=1 / weightb=1 / open_gop=0 / weightp=1 / keyint=48 / keyint_min=4 / scenecut=40 / intra_refresh=0 / rc_lookahead=10 / rc=2pass / mbtree=1 / bitrate=8000 / ratetol=1.0 / qcomp=0.60 / qpmin=0 / qpmax=69 / qpstep=4 / cplxblur=20.0 / qblur=0.5 / ip_ratio=1.40 / aq=1:1.00\nLanguage : English\n\nAudio\nID : 2\nFormat : AAC\nFormat/Info : Advanced Audio Codec\nFormat profile : LC\nCodec ID : 40\nDuration : 22mn 6s\nBit rate mode : Constant\nBit rate : 126 Kbps\nChannel(s) : 2 channels\nChannel positions : Front: L R\nSampling rate : 44.1 KHz\nCompression mode : Lossy\nStream size : 19.9 MiB (2%)\n\n\n","torrent":{"xt":"urn:btih:39677cefa37abd6986b5570c2026f80dbf06b080","amp;dn":"MassageRooms.Steve.Martin.And.Angel.XXX.1080p.MP4KTR.mp4","amp;tr":["udp%3A%2F%2Ftracker.openbittorrent.com%3A80","udp%3A%2F%2Fopen.demonii.com%3A1337","udp%3A%2F%2Ftracker.coppersurfer.tk%3A6969","udp%3A%2F%2Fexodus.desync.com%3A6969"],"infoHash":"39677cefa37abd6986b5570c2026f80dbf06b080","infoHashBuffer":{"type":"Buffer","data":[57,103,124,239,163,122,189,105,134,181,87,12,32,38,248,13,191,6,176,128]},"announce":[],"urlList":[]}}